<?xml version="1.0" encoding="UTF-8"?>
<svg width="1200px" height="800px" viewBox="0 0 1200 800" version="1.1" xmlns="http://www.w3.org/2000/svg" xmlns:xlink="http://www.w3.org/1999/xlink">
    <!-- Generator: Sketch 63.1 (92452) - https://sketch.com -->
    <title>A11Y Collective Logo</title>
    <desc>Created with Sketch.</desc>
    <defs>
        <rect id="path-1" x="0" y="0" width="986" height="540"></rect>
    </defs>
    <g id="A11Y-Collective-Logo" stroke="none" stroke-width="1" fill="none" fill-rule="evenodd">
        <g id="Rectangle-+-Oval-+-Rectangle-+-Rectangle-Mask" transform="translate(107.000000, 130.000000)">
            <mask id="mask-2" fill="white">
                <use xlink:href="#path-1"></use>
            </mask>
            <use id="Mask" fill="#0600ED" opacity="0.601353237" xlink:href="#path-1"></use>
            <rect id="Rectangle" fill="#0600ED" mask="url(#mask-2)" x="19" y="18" width="950" height="505"></rect>
            <circle id="Oval" fill="#FFFFFF" opacity="0.0968191964" mask="url(#mask-2)" cx="800.906694" cy="-226.355451" r="450.06862"></circle>
            <rect id="Rectangle" fill="#FFFFFF" opacity="0.15" mask="url(#mask-2)" x="-13.0921682" y="-260.705105" width="363.75409" height="833.241196"></rect>
            <polygon id="Rectangle" fill="#FFFFFF" opacity="0.1" mask="url(#mask-2)" points="340.93826 706.790907 1052.59275 -165.161998 1052.59275 706.790907"></polygon>
            <g id="logo" mask="url(#mask-2)" fill="#FFFFFF">
                <g transform="translate(123.000000, -38.000000)">
                    <path d="M9.234,464.87809 L263.169109,464.878363 L263.169109,474.112367 L-1.20954623e-11,474.112367 L-1.20670406e-11,0.0440901525 L9.23400384,0.0440901525 L9.234,141.68809 L729.907,141.68809 L729.907377,0.0440901525 L739.141381,0.0440901525 L739.141381,472.927687 L738.72,472.92709 L738.720307,474.112367 L692.550288,474.112367 L692.550288,464.878363 L729.907,464.87809 L729.907,150.92209 L9.234,150.92209 L9.234,464.87809 Z" id="Combined-Shape" fill-rule="evenodd"></path>
                    <path d="M295.721458,475.070485 C300.95917,475.070485 305.12379,474.074042 308.215318,472.081156 C311.306846,470.088271 313.951251,467.022293 316.148536,462.883223 L306.184108,458.47588 C305.034366,460.519865 303.552477,462.103953 301.73844,463.228145 C299.924403,464.352337 298.008167,464.914433 295.989731,464.914433 C293.204801,464.914433 290.97558,463.873278 289.302067,461.790968 C287.628554,459.708658 286.791798,457.04509 286.791798,453.800263 C286.791798,450.862035 287.666879,448.409252 289.417041,446.441917 C291.167204,444.474581 293.38365,443.490913 296.066381,443.490913 C300.460949,443.490913 303.731325,445.713747 305.87751,450.159415 L314.960469,450.159415 L314.960469,433.833083 L306.184108,433.833083 L306.184108,437.205658 C302.300536,434.599577 298.238115,433.296537 293.996846,433.296537 C290.292123,433.296537 286.881222,434.197168 283.764145,435.99843 C280.647067,437.799692 278.175123,440.271636 276.348311,443.414263 C274.521499,446.556891 273.608093,450.09554 273.608093,454.030212 C273.608093,460.622064 275.594591,465.776739 279.567588,469.494237 C283.540584,473.211736 288.925207,475.070485 295.721458,475.070485 Z M342.209347,475.070485 C346.067369,475.070485 349.606019,474.163466 352.825295,472.349429 C356.044572,470.535392 358.599554,468.018736 360.49024,464.799459 C362.380926,461.580182 363.32627,457.964883 363.32627,453.953562 C363.32627,449.967791 362.419251,446.378042 360.605214,443.184315 C358.791177,439.990588 356.274521,437.480319 353.055244,435.653507 C349.835967,433.826695 346.220668,432.913289 342.209347,432.913289 C338.274676,432.913289 334.684927,433.826695 331.4401,435.653507 C328.195274,437.480319 325.646679,439.990588 323.794318,443.184315 C321.941956,446.378042 321.015775,449.967791 321.015775,453.953562 C321.015775,457.964883 321.916406,461.580182 323.717668,464.799459 C325.51893,468.018736 328.0292,470.535392 331.248476,472.349429 C334.467753,474.163466 338.121377,475.070485 342.209347,475.070485 Z M342.132698,465.067732 C339.731015,465.067732 337.808392,464.077677 336.364827,462.097566 C334.921262,460.117455 334.19948,457.504987 334.19948,454.26016 C334.19948,450.427688 334.863775,447.559721 336.192366,445.65626 C337.520956,443.752799 339.475517,442.801068 342.056048,442.801068 C344.61103,442.801068 346.597528,443.765573 348.015543,445.694584 C349.433558,447.623596 350.142565,450.299939 350.142565,453.723614 C350.142565,457.377238 349.433558,460.18133 348.015543,462.135891 C346.597528,464.090452 344.63658,465.067732 342.132698,465.067732 Z M392.912956,474.112367 L392.912956,464.837784 L387.202572,464.837784 L387.202572,416.357009 L368.040211,416.357009 L368.040211,425.593267 L374.325465,425.593267 L374.325465,464.837784 L368.040211,464.837784 L368.040211,474.112367 L392.912956,474.112367 Z M423.019275,474.112367 L423.019275,464.837784 L417.308891,464.837784 L417.308891,416.357009 L398.146529,416.357009 L398.146529,425.593267 L404.431784,425.593267 L404.431784,464.837784 L398.146529,464.837784 L398.146529,474.112367 L423.019275,474.112367 Z M450.268153,475.070485 C454.71382,475.070485 458.559068,474.246503 461.803894,472.59854 C465.048721,470.950577 467.769776,468.478632 469.96706,465.182706 L460.002632,461.963429 C456.962204,465.131606 453.845127,466.715695 450.6514,466.715695 C447.764271,466.715695 445.4073,465.815064 443.580488,464.013802 C441.753677,462.21254 440.686972,459.766145 440.380374,456.674618 L470.426957,456.674618 C470.375857,451.922352 469.500776,447.751345 467.801713,444.161596 C466.102651,440.571847 463.681806,437.799692 460.539178,435.845131 C457.396551,433.89057 453.704603,432.913289 449.463333,432.913289 C445.554212,432.913289 441.932525,433.852245 438.598274,435.730157 C435.264024,437.608068 432.619618,440.207762 430.665057,443.529238 C428.710496,446.850714 427.733215,450.555437 427.733215,454.643407 C427.733215,458.782477 428.672171,462.385001 430.550083,465.450979 C432.427994,468.516957 435.0724,470.886702 438.4833,472.560215 C441.894201,474.233728 445.822485,475.070485 450.268153,475.070485 Z M440.686972,449.546219 C441.044669,446.812389 441.91975,444.781179 443.312215,443.452588 C444.70468,442.123998 446.550654,441.459703 448.850138,441.459703 C451.047422,441.459703 452.944496,442.207035 454.541359,443.701699 C456.138223,445.196363 457.115503,447.144537 457.473201,449.546219 L440.686972,449.546219 Z M497.63751,475.070485 C502.875222,475.070485 507.039842,474.074042 510.13137,472.081156 C513.222898,470.088271 515.867303,467.022293 518.064588,462.883223 L508.10016,458.47588 C506.950418,460.519865 505.468529,462.103953 503.654492,463.228145 C501.840455,464.352337 499.924219,464.914433 497.905783,464.914433 C495.120853,464.914433 492.891632,463.873278 491.218119,461.790968 C489.544606,459.708658 488.70785,457.04509 488.70785,453.800263 C488.70785,450.862035 489.582931,448.409252 491.333093,446.441917 C493.083256,444.474581 495.299702,443.490913 497.982433,443.490913 C502.377001,443.490913 505.647377,445.713747 507.793562,450.159415 L516.876521,450.159415 L516.876521,433.833083 L508.10016,433.833083 L508.10016,437.205658 C504.216588,434.599577 500.154167,433.296537 495.912898,433.296537 C492.208174,433.296537 488.797274,434.197168 485.680197,435.99843 C482.563119,437.799692 480.091175,440.271636 478.264363,443.414263 C476.437551,446.556891 475.524145,450.09554 475.524145,454.030212 C475.524145,460.622064 477.510643,465.776739 481.483639,469.494237 C485.456636,473.211736 490.841259,475.070485 497.63751,475.070485 Z M538.146742,474.725562 C541.18717,474.725562 544.431997,474.048492 547.881222,472.694352 L547.881222,463.764691 C546.322683,464.326787 544.994093,464.607835 543.895451,464.607835 C542.56686,464.607835 541.659842,464.29485 541.174395,463.66888 C540.688949,463.042909 540.446226,462.103953 540.446226,460.852012 L540.446226,443.260965 L547.881222,443.260965 L547.881222,433.833083 L540.446226,433.833083 L540.446226,418.388219 L527.645768,427.586153 L527.645768,433.833083 L522.54858,433.833083 L522.54858,443.260965 L527.645768,443.260965 L527.645768,464.531186 C527.645768,467.776012 528.520849,470.286282 530.271012,472.061994 C532.021174,473.837706 534.646418,474.725562 538.146742,474.725562 Z M565.970491,429.464064 C567.886727,429.464064 569.541078,428.793382 570.933543,427.452016 C572.326008,426.110651 573.02224,424.417976 573.02224,422.373991 C573.02224,420.457754 572.326008,418.803404 570.933543,417.410939 C569.541078,416.018474 567.886727,415.322242 565.970491,415.322242 C564.028705,415.322242 562.36158,416.018474 560.969115,417.410939 C559.57665,418.803404 558.880417,420.457754 558.880417,422.373991 C558.880417,424.315777 559.57665,425.982902 560.969115,427.375367 C562.36158,428.767832 564.028705,429.464064 565.970491,429.464064 Z M578.196078,474.112367 L578.196078,464.837784 L572.217421,464.837784 L572.217421,433.833083 L553.323333,433.833083 L553.323333,443.260965 L559.455288,443.260965 L559.455288,464.837784 L553.323333,464.837784 L553.323333,474.112367 L578.196078,474.112367 Z M611.615236,474.725562 L624.722292,443.260965 L630.471,443.260965 L630.471,433.833083 L609.200779,433.833083 L609.200779,443.260965 L614.451266,443.260965 L607.092919,461.541857 L600.731015,443.260965 L605.751554,443.260965 L605.751554,433.833083 L581.338705,433.833083 L581.338705,443.260965 L587.125738,443.260965 L600.731015,474.725562 L611.615236,474.725562 Z M657.259981,475.070485 C661.705649,475.070485 665.550896,474.246503 668.795723,472.59854 C672.040549,470.950577 674.761605,468.478632 676.958889,465.182706 L666.994461,461.963429 C663.954033,465.131606 660.836955,466.715695 657.643229,466.715695 C654.756099,466.715695 652.399129,465.815064 650.572317,464.013802 C648.745505,462.21254 647.678801,459.766145 647.372203,456.674618 L677.418786,456.674618 C677.367686,451.922352 676.492605,447.751345 674.793542,444.161596 C673.094479,440.571847 670.673634,437.799692 667.531007,435.845131 C664.38838,433.89057 660.696431,432.913289 656.455162,432.913289 C652.54604,432.913289 648.924354,433.852245 645.590103,435.730157 C642.255852,437.608068 639.611446,440.207762 637.656886,443.529238 C635.702325,446.850714 634.725044,450.555437 634.725044,454.643407 C634.725044,458.782477 635.664,462.385001 637.541911,465.450979 C639.419823,468.516957 642.064229,470.886702 645.475129,472.560215 C648.886029,474.233728 652.814313,475.070485 657.259981,475.070485 Z M647.678801,449.546219 C648.036498,446.812389 648.911579,444.781179 650.304044,443.452588 C651.696509,442.123998 653.542483,441.459703 655.841967,441.459703 C658.039251,441.459703 659.936324,442.207035 661.533188,443.701699 C663.130051,445.196363 664.107332,447.144537 664.465029,449.546219 L647.678801,449.546219 Z" id="collective" fill-rule="nonzero"></path>
                    <path d="M155.232839,377.219964 L165.159393,344.263805 L211.417135,344.263805 L221.343689,377.219964 L252.7116,377.219964 L207.645044,238.645269 L170.321201,238.645269 L124.659052,377.219964 L155.232839,377.219964 Z M204.071485,318.653295 L172.306512,318.653295 L187.593405,266.042558 L188.58606,266.042558 L204.071485,318.653295 Z M362.596246,377.219964 L362.596246,356.702108 L342.447649,356.702108 L342.447649,238.645269 L296.7855,238.645269 L275.574997,262.025013 L294.633981,276.914844 L310.881207,260.285157 L312.667987,260.285157 L312.667987,356.702108 L275.344144,356.702108 L275.344144,377.219964 L362.596246,377.219964 Z M481.714895,377.219964 L481.714895,356.702108 L461.566299,356.702108 L461.566299,238.645269 L415.90415,238.645269 L394.693647,262.025013 L413.752631,276.914844 L429.999857,260.285157 L431.786637,260.285157 L431.786637,356.702108 L394.693647,356.702108 L394.693647,377.219964 L481.714895,377.219964 Z M567.872768,377.219964 L567.872768,322.822448 L615.321697,238.645269 L582.564068,238.645269 L553.975592,293.83691 L553.57853,293.83691 L523.798868,238.645269 L490.048584,238.645269 L537.497513,323.020979 L537.497513,377.219964 L567.872768,377.219964 Z" id="A11Y" fill-rule="nonzero"></path>
                </g>
            </g>
        </g>
    </g>
</svg>