<svg xmlns="http://www.w3.org/2000/svg" xmlns:xlink="http://www.w3.org/1999/xlink" viewBox="0 0 1214 222"><defs><linearGradient id="gradient_a" x1="466.05" y1="3527.2" x2="466.05" y2="3369.3" gradientTransform="translate(0 -3341.7)" gradientUnits="userSpaceOnUse"><stop offset="0" stop-color="#570732"/><stop offset="0.04" stop-color="#610b39"/><stop offset="0.15" stop-color="#79164b"/><stop offset="0.29" stop-color="#8c1e59"/><stop offset="0.44" stop-color="#9a2463"/><stop offset="0.63" stop-color="#a22768"/><stop offset="1" stop-color="#a4286a"/></linearGradient><linearGradient id="gradient_b" x1="277.2" y1="3505.2" x2="277.2" y2="3394.53" xlink:href="#a"/><linearGradient id="gradient_c" x1="380.7" y1="3505.6" x2="380.7" y2="3393.88" xlink:href="#a"/><linearGradient id="gradient_d" x1="66.15" y1="3335.89" x2="66.15" y2="3511.08" gradientTransform="translate(0 -3341.7)" gradientUnits="userSpaceOnUse"><stop offset="0" stop-color="#77b227"/><stop offset="0.47" stop-color="#75b027"/><stop offset="0.64" stop-color="#6eab27"/><stop offset="0.75" stop-color="#63a027"/><stop offset="0.85" stop-color="#529228"/><stop offset="0.93" stop-color="#3c7f28"/><stop offset="1" stop-color="#246b29"/></linearGradient><linearGradient id="gradient_e" x1="165.2" y1="3505.7" x2="165.2" y2="3394.9" xlink:href="#a"/></defs><path d="M478.7,137.1v-56h20V56.8h-20V27.6H447.8V56.9H432.1V81.2h15.7V134c0,30,20.9,47.8,43,51.5l9.2-24.8C487.1,159,478.8,149.4,478.7,137.1Z" fill="url(#gradient_a)"/><path d="M322.8,128.2v-42c0-1.5-.1-3-.2-4.4-2.7-34-51-33.9-88.3-20.9L245,82.7c24.3-11.6,38.9-8.6,44-2.9l.4.4v.1c2.6,3.5,2,9,2,13.4-31.8,0-65.7,4.2-65.7,39.1,0,26.5,33.2,43.6,68,18.3l5.2,12.4h29.8C325.9,149,322.8,136.5,322.8,128.2Zm-31.2-.2c-24.5,27.4-46.9,1.6-23.9-9.6,6.8-2.3,15.9-2.4,23.9-2.4Z" fill="url(#gradient_b)"/><path d="M370.3,84c0-10.4,16.6-15.2,42.8-3.3l9.1-22C387,48.1,338.9,47.1,338.6,83.9c-.1,17.7,11.2,27.2,27.5,33.2,11.3,4.2,27.6,6.4,27.6,15.4-.1,11.8-25.3,13.6-48.4-2.3L336,154c31.4,15.6,89.7,16.1,89.4-23.1C425,92.2,370.3,99,370.3,84Z" fill="url(#gradient_c)"/><path d="M98.2.2,53.4,124.5,31.9,57.3H0l35.7,91.8a33.93,33.93,0,0,1,0,24.3c-4,10.2-10.6,19-26.8,21.2v27.2c31.5,0,48.6-19.4,63.8-61.9L132.3.2Z" fill="url(#gradient_d)"/><path d="M165.2,53.2c-38.6,0-54,27.3-54,56.2,0,30,15.1,54.6,54,54.6,38.7,0,54.1-27.6,54-54.6C219.1,76.5,202.4,53.2,165.2,53.2Zm0,87c-15.7,0-23.4-11.7-23.4-30.9s8.3-32.9,23.4-32.9,23.2,13.7,23.2,32.9S180.9,140.2,165.2,140.2Z" fill="url(#gradient_e)"/><path d="M577.2,145.4c0,5.6-2,10-6,13.1s-9.6,4.8-16.7,4.8-12.9-1.1-17.4-3.3v-9.7a54.4,54.4,0,0,0,9.1,3.2,37.2,37.2,0,0,0,9,1.2c4.1,0,7.1-.8,9-2.3a7.55,7.55,0,0,0,2.9-6.2,8,8,0,0,0-2.7-6c-1.8-1.6-5.4-3.6-11-5.8s-9.8-5-12.1-7.9a17,17,0,0,1-3.5-10.7,15.22,15.22,0,0,1,5.6-12.4q5.55-4.5,15-4.5a44.14,44.14,0,0,1,17.9,3.9l-3.3,8.4c-5.6-2.3-10.6-3.5-14.9-3.5-3.3,0-5.8.7-7.6,2.2a7.17,7.17,0,0,0-2.6,5.7,8.16,8.16,0,0,0,1,4.2,9.8,9.8,0,0,0,3.4,3.3,62.56,62.56,0,0,0,8.5,4.1,42.83,42.83,0,0,1,10.1,5.4,16.38,16.38,0,0,1,4.7,5.6A14,14,0,0,1,577.2,145.4Z" fill="#a4286a"/><path d="M624,162.4H588.5V99.7H624v8.7H598.8v17.1h23.6v8.6H598.8v19.7H624Z" fill="#a4286a"/><path d="M692.3,131c0,10.2-2.6,18.1-7.7,23.8s-12.3,8.5-21.7,8.5-16.7-2.8-21.8-8.4-7.6-13.6-7.6-24,2.6-18.3,7.7-23.9,12.4-8.3,21.9-8.3c9.3,0,16.5,2.8,21.6,8.5S692.3,120.7,692.3,131Zm-47.8,0c0,7.7,1.6,13.6,4.7,17.6s7.7,6,13.9,6,10.7-2,13.8-5.9,4.7-9.8,4.7-17.6-1.5-13.5-4.6-17.5-7.7-6-13.8-6-10.8,2-13.9,6C646,117.5,644.5,123.3,644.5,131Z" fill="#a4286a"/><path d="M748.7,122.5H737.1v39.8H727V122.5h-7.8v-4.7l7.8-3.1v-3.1c0-5.6,1.3-9.8,3.9-12.5S737.6,95,743,95a32.2,32.2,0,0,1,10.5,1.8l-2.7,7.6a23.49,23.49,0,0,0-7.1-1.2c-2.3,0-4,.7-5,2.1a10.93,10.93,0,0,0-1.6,6.4v3.1h11.6Z" fill="#a4286a"/><path d="M798,138.5c0,7.8-2,13.8-6,18.1s-9.5,6.5-16.6,6.5a23,23,0,0,1-11.8-3,20.58,20.58,0,0,1-7.9-8.6,29.6,29.6,0,0,1-2.7-13c0-7.7,2-13.7,5.9-18s9.5-6.5,16.7-6.5c6.9,0,12.3,2.2,16.3,6.6C796,125.2,798,131,798,138.5Zm-34.5,0c0,11,4,16.4,12.1,16.4s12-5.5,12-16.4-4-16.3-12.1-16.3c-4.2,0-7.3,1.4-9.2,4.2C764.4,129.4,763.5,133.4,763.5,138.5Z" fill="#a4286a"/><path d="M832.8,114.1a23.46,23.46,0,0,1,5,.4l-1,9.4a21.38,21.38,0,0,0-4.5-.5,13,13,0,0,0-9.8,3.9,14.21,14.21,0,0,0-3.8,10.3v24.8H808.6V114.9h7.9l1.3,8.4h.5a18.22,18.22,0,0,1,6.2-6.7A16,16,0,0,1,832.8,114.1Z" fill="#a4286a"/><path d="M941.3,111.3a4.79,4.79,0,0,0-3.5,1.2,4,4,0,0,0-1.2,2.9,11.26,11.26,0,0,0,.8,3.6,8.28,8.28,0,0,1,.5,3.5,54.57,54.57,0,0,1-4.5,14.3,91,91,0,0,1-6.3,10.8l-4.6,6.1-.7-6.6-3.3-28.9a9.23,9.23,0,0,0-.5-2.5c-.7-2.8-2.8-4.3-5.9-4.3a9.6,9.6,0,0,0-3.3.6,11.55,11.55,0,0,0-5.4,4.4l-.2.4-.1.1.1.2,1.6,3.4.2.4.3-.3,2.2-1.8a1.78,1.78,0,0,1,1-.4c.4,0,.8.8,1,2.1l6.8,43.6v.3h.3l6.4-.6h.1l.1-.1,10.5-14.1a123.64,123.64,0,0,0,8.5-14.3,67.55,67.55,0,0,0,3.1-7.6,24.55,24.55,0,0,0,1.3-7.4,12.52,12.52,0,0,0-1.3-6.1A4.41,4.41,0,0,0,941.3,111.3Zm-33.2,7h0Z" fill="#a4286a"/><path d="M980.3,112.2a17,17,0,0,0-5.9-.9,19.89,19.89,0,0,0-6.8,1.2c-6.6,2.4-11.7,7.6-15.1,15.3a38.79,38.79,0,0,0-3.6,16.4c0,8.8,3.2,14.9,9.5,18.2a19.3,19.3,0,0,0,8.9,1.8c3.6,0,7.6-1.3,11.8-3.9a20.87,20.87,0,0,0,5.7-5.4l.3-.4.1-.2-.1-.2-2.4-4.3-.2-.4-.3.3-.7.7c-4.4,4.4-9.1,6.6-13.9,6.6a8,8,0,0,1-6-2.4,10,10,0,0,1-1.8-2.6,12.13,12.13,0,0,1-1.1-3.2,11.12,11.12,0,0,1-.4-2.9c0-.8-.1-1.5-.1-2.1V143a48.62,48.62,0,0,0,10.8-2.1,46.23,46.23,0,0,0,6.7-2.6,27.87,27.87,0,0,0,6-3.8,19.25,19.25,0,0,0,4.4-5.1,13.86,13.86,0,0,0,1.8-7.3,10.29,10.29,0,0,0-3.3-7.7A34,34,0,0,0,980.3,112.2Zm-17.4,12.5a21.13,21.13,0,0,1,2.8-3.7,13.55,13.55,0,0,1,3.4-2.5,9.42,9.42,0,0,1,4.3-.9,5,5,0,0,1,3.7,1.5,5.35,5.35,0,0,1,1.5,4,9.29,9.29,0,0,1-.9,4.4,14.8,14.8,0,0,1-6.2,5.9,30.63,30.63,0,0,1-12.9,3.8,35.66,35.66,0,0,1,2.2-8.2A21.43,21.43,0,0,1,962.9,124.7Z" fill="#a4286a"/><path d="M1024,121.7l.4.2.1-.4,1.8-8.6v-.2l-.1-.1-.3-.3c-.7-.6-1.8-.8-3.5-.8-3.8,0-7.4,1.5-10.9,4.4a26.52,26.52,0,0,0-3.7,3.8l.8-6.7v-.2l-.2-.1-2.4-1.2h-.2l-9.9,2h-.2v.2l-.8,4.2v.2l.2.1,4,1.9-5.7,43.1v.4h8.9v-.3l4.3-32a19.74,19.74,0,0,1,6.2-7.9,12.11,12.11,0,0,1,7.6-2.5,8,8,0,0,1,3.1.5Z" fill="#a4286a"/><path d="M1067.2,111.5a4.3,4.3,0,0,0-3.1,1.2,3.8,3.8,0,0,0-1.3,3,6.71,6.71,0,0,0,.3,2.3l.8,2.1a4.42,4.42,0,0,1,.2,2.6c-.6,5.5-2.7,12-6.2,19.4l-2.4,5.2c-.6,1.3-1.1,2.2-1.4,2.8l-5,9.5-.8-8.4-4.3-33a12.46,12.46,0,0,0-1.6-4.8,4.54,4.54,0,0,0-1.9-1.5,8,8,0,0,0-2.9-.5,9.83,9.83,0,0,0-3.4.7,12.44,12.44,0,0,0-5.9,5l-.2.4-.1.1.1.1,1.7,3.4.2.4.3-.3.8-.7c2.1-2,2.8-2.1,2.8-2.1.2,0,.4,0,.5.2a6.29,6.29,0,0,1,.7,2l7.8,46v.3h1.4a28,28,0,0,1-6.3,8.4,10.86,10.86,0,0,1-3.5,2.1,10.3,10.3,0,0,1-3.5.6,14.38,14.38,0,0,1-4-.6c-.6-.2-1-.4-1.3-.5s-.8-.3-1-.4l-.8-.3-.3-.1-.1.3-2,7-.1.3.3.1.7.2a31.13,31.13,0,0,0,3.6.9l2.1.3a26.34,26.34,0,0,0,3.1.1,17.14,17.14,0,0,0,4.7-.8,19.28,19.28,0,0,0,10.1-7.2c4.1-4.9,9.4-13.9,15.9-26.7l4.8-9.1c4.3-8.6,6.4-15.7,6.4-21.1C1073,113,1069.9,111.5,1067.2,111.5Zm-37.6,66.6c.4,0,.9.1,1.3.1C1030.5,178.2,1030.1,178.1,1029.6,178.1Zm3.2-.1a2,2,0,0,0-.7.1A1.48,1.48,0,0,0,1032.8,178Zm-3.8,0a16,16,0,0,1-2.1-.5A4.06,4.06,0,0,0,1029,178Z" fill="#a4286a"/><path d="M1107.4,112.8a19,19,0,0,0-7.3-1.4,19.5,19.5,0,0,0-7.4,1.3,24.16,24.16,0,0,0-11.1,8.8,35.88,35.88,0,0,0-6.7,21.2c0,10.5,3.4,17.3,10.1,20.2h.1a19,19,0,0,0,7.3,1.4,20.39,20.39,0,0,0,7.5-1.3,24.39,24.39,0,0,0,11.1-8.9,35.88,35.88,0,0,0,6.7-21.2c0-6.9-1.5-12.3-4.6-16A19.26,19.26,0,0,0,1107.4,112.8Zm.8,20.2a37.45,37.45,0,0,1-3.6,16.6c-2.7,5.6-6.3,8.4-10.9,8.4-6.4,0-9.6-4.9-9.6-15.1a48.44,48.44,0,0,1,.3-5.3c.9-6.9,2.9-12.2,6.1-15.8a10.31,10.31,0,0,1,8.1-4C1105,117.8,1108.2,122.8,1108.2,133Z" fill="#a4286a"/><path d="M1165.4,155l-.2-.3-.3.3-.7.6a8.37,8.37,0,0,1-3.1,2,9.21,9.21,0,0,1-.1-2.9c.1-1.5.8-6.2,2.2-13.9.2-1.2.6-3.4,1.3-6.7a44.88,44.88,0,0,0,1-9c0-4.8-1-8.4-2.9-10.6a8.69,8.69,0,0,0-3.5-2.5,12.13,12.13,0,0,0-4.3-.7,16.47,16.47,0,0,0-5.7,1.1,30.76,30.76,0,0,0-12.3,8.5l.8-8v-.2l-.2-.1-2.4-1.2h-.2l-9.8,2h-.2v.2l-.8,4.2v.2l.2.1,4,1.9-5.7,43.1v.4h8.9v-.3l4.3-32.4a35,35,0,0,1,8-8.3,20.28,20.28,0,0,1,4.4-2.6,11.17,11.17,0,0,1,4.4-.9,3.51,3.51,0,0,1,3,1.2,4.74,4.74,0,0,1,.8,1.9,23.9,23.9,0,0,1,.3,4.6,76,76,0,0,1-1.6,11.9l-2.2,12.1c-.2,1.4-.4,2.7-.6,4.1a21.27,21.27,0,0,0-.3,3v1.3c0,3.5,2,5.5,5.6,5.5a8.57,8.57,0,0,0,3.6-.7,13.16,13.16,0,0,0,6.2-4.7l.3-.4.1-.2-.1-.2Zm-9.7-43.2a1.7,1.7,0,0,1,.7.1A2,2,0,0,0,1155.7,111.8Zm-.5,0h0Zm3.7.5c-.3-.1-.6-.2-1-.3A2.93,2.93,0,0,0,1158.9,112.3Zm-1.4-.2a1.7,1.7,0,0,0-.7-.1A1.48,1.48,0,0,1,1157.5,112.1Zm-3.7-.3h0Zm-1.4,0a1.27,1.27,0,0,0-.6.1A.47.47,0,0,0,1152.4,111.8Zm-1.5.4c-.2,0-.3.1-.5.1A1.09,1.09,0,0,1,1150.9,112.2Z" fill="#a4286a"/><path d="M1193.1,141.4a46.23,46.23,0,0,0,6.7-2.6,27.87,27.87,0,0,0,6-3.8,19.25,19.25,0,0,0,4.4-5.1,13.86,13.86,0,0,0,1.8-7.3,10.29,10.29,0,0,0-3.3-7.7,10.93,10.93,0,0,0-4.2-2.5,17,17,0,0,0-5.9-.9,19.89,19.89,0,0,0-6.8,1.2c-6.6,2.4-11.7,7.6-15.1,15.3a38.79,38.79,0,0,0-3.6,16.4c0,8.8,3.2,14.9,9.5,18.2a19.3,19.3,0,0,0,8.9,1.8c3.6,0,7.6-1.3,11.8-3.9a20.87,20.87,0,0,0,5.7-5.4l.3-.4.1-.2-.1-.2-2.4-4.3-.2-.4-.3.3-.7.7c-4.4,4.4-9.1,6.6-13.9,6.6a8,8,0,0,1-6-2.4,10,10,0,0,1-1.8-2.6,12.13,12.13,0,0,1-1.1-3.2,11.12,11.12,0,0,1-.4-2.9c0-.8-.1-1.5-.1-2.1v-.8A41.9,41.9,0,0,0,1193.1,141.4Zm-6-16.7a21.13,21.13,0,0,1,2.8-3.7,13.55,13.55,0,0,1,3.4-2.5,9.42,9.42,0,0,1,4.3-.9,5,5,0,0,1,3.7,1.5,5.35,5.35,0,0,1,1.5,4,9.29,9.29,0,0,1-.9,4.4,14.8,14.8,0,0,1-6.2,5.9,30.63,30.63,0,0,1-12.9,3.8,35.66,35.66,0,0,1,2.2-8.2A17.15,17.15,0,0,1,1187.1,124.7Z" fill="#a4286a"/><path d="M892.3,112.2a17,17,0,0,0-5.9-.9,19.89,19.89,0,0,0-6.8,1.2c-6.6,2.4-11.7,7.6-15.1,15.3a38.79,38.79,0,0,0-3.6,16.4c0,8.8,3.2,14.9,9.5,18.2a19.3,19.3,0,0,0,8.9,1.8c3.6,0,7.6-1.3,11.8-3.9a20.87,20.87,0,0,0,5.7-5.4l.3-.4.1-.2-.1-.2-2.4-4.3-.2-.4-.3.3-.7.7c-4.4,4.4-9.1,6.6-13.9,6.6a8,8,0,0,1-6-2.4,10,10,0,0,1-1.8-2.6,12.13,12.13,0,0,1-1.1-3.2,11.12,11.12,0,0,1-.4-2.9c0-.8-.1-1.5-.1-2.1V143a48.62,48.62,0,0,0,10.8-2.1,46.23,46.23,0,0,0,6.7-2.6,27.87,27.87,0,0,0,6-3.8,19.25,19.25,0,0,0,4.4-5.1,13.86,13.86,0,0,0,1.8-7.3,10.29,10.29,0,0,0-3.3-7.7A34,34,0,0,0,892.3,112.2Zm-17.4,12.5a21.13,21.13,0,0,1,2.8-3.7,13.55,13.55,0,0,1,3.4-2.5,9.42,9.42,0,0,1,4.3-.9,5,5,0,0,1,3.7,1.5,5.35,5.35,0,0,1,1.5,4,9.29,9.29,0,0,1-.9,4.4,14.8,14.8,0,0,1-6.2,5.9,30.63,30.63,0,0,1-12.9,3.8,35.66,35.66,0,0,1,2.2-8.2A21.43,21.43,0,0,1,874.9,124.7Z" fill="#a4286a"/></svg>