<?xml version="1.0" encoding="utf-8"?>
<!-- Generator: Adobe Illustrator 21.0.1, SVG Export Plug-In . SVG Version: 6.00 Build 0)  -->
<svg version="1.1" id="Laag_2" xmlns="http://www.w3.org/2000/svg" xmlns:xlink="http://www.w3.org/1999/xlink" x="0px" y="0px"
	 viewBox="0 0 520 285" style="enable-background:new 0 0 520 285;" xml:space="preserve">
<style type="text/css">
	.st0{fill:#FFFFFF;}
</style>
<g>
	<path class="st0" d="M488.7,151V95h20V70.7h-20V41.4h-30.9v29.3h-15.7V95h15.7v52.8c0,30,20.9,47.8,43,51.5l9.2-24.8
		C497.1,172.8,488.8,163.2,488.7,151z"/>
	<path class="st0" d="M332.8,142.1V100c0-1.5-0.1-3-0.2-4.4c-2.7-34-51-33.9-88.3-20.9L255,96.5c24.3-11.6,38.9-8.6,44-2.9
		c0.1,0.1,0.3,0.3,0.4,0.4c0,0,0,0,0,0.1c2.6,3.5,2,9,2,13.4c-31.8,0-65.7,4.2-65.7,39.1c0,26.5,33.2,43.6,68,18.3l5.2,12.4h29.8
		C335.9,162.8,332.8,150.3,332.8,142.1z M301.6,141.9c-24.5,27.4-46.9,1.6-23.9-9.6c6.8-2.3,15.9-2.4,23.9-2.4V141.9z"/>
	<path class="st0" d="M380.3,97.8c0-10.4,16.6-15.2,42.8-3.3l9.1-22c-35.2-10.6-83.3-11.6-83.6,25.2c-0.1,17.7,11.2,27.2,27.5,33.2
		c11.3,4.2,27.6,6.4,27.6,15.4c-0.1,11.8-25.3,13.6-48.4-2.3l-9.3,23.8c31.4,15.6,89.7,16.1,89.4-23.1
		C435,106.1,380.3,112.8,380.3,97.8z"/>
	<path class="st0" d="M108.2,14L63.4,138.4L41.9,71.2H10L45.7,163c3,7.8,3,16.5,0,24.3c-4,10.2-10.6,19-26.8,21.2v27.2
		c31.5,0,48.6-19.4,63.8-61.9L142.3,14H108.2z"/>
</g>
<path class="st0" d="M175.2,67c-38.6,0-54,27.3-54,56.2c0,30,15.1,54.6,54,54.6c38.7,0,54.1-27.6,54-54.6
	C229.1,90.3,212.4,67,175.2,67z M175.2,154.1c-15.7,0-23.4-11.7-23.4-30.9s8.3-32.9,23.4-32.9c15,0,23.2,13.7,23.2,32.9
	S190.9,154.1,175.2,154.1z"/>
<g>
	<path class="st0" d="M104.5,249.4c0,3.6-1.3,6.3-3.9,8.4c-2.6,2-6.1,3-10.6,3c-4.5,0-8.2-0.7-11.1-2.1v-6.2c1.8,0.9,3.8,1.5,5.8,2
		s4,0.7,5.7,0.7c2.6,0,4.5-0.5,5.7-1.5s1.8-2.3,1.8-4c0-1.5-0.6-2.8-1.7-3.8c-1.1-1-3.5-2.3-7-3.7c-3.6-1.5-6.2-3.2-7.7-5.1
		c-1.5-1.9-2.2-4.2-2.2-6.8c0-3.3,1.2-6,3.6-7.9c2.4-1.9,5.6-2.9,9.5-2.9c3.8,0,7.6,0.8,11.4,2.5l-2.1,5.3c-3.6-1.5-6.7-2.2-9.5-2.2
		c-2.1,0-3.7,0.5-4.8,1.4c-1.1,0.9-1.6,2.1-1.6,3.7c0,1,0.2,1.9,0.7,2.7s1.2,1.4,2.2,2.1c1,0.7,2.8,1.5,5.4,2.6
		c2.9,1.2,5.1,2.4,6.5,3.4c1.4,1.1,2.4,2.3,3,3.6C104.1,246,104.5,247.6,104.5,249.4z"/>
	<path class="st0" d="M134.3,260.3h-22.6v-40h22.6v5.5h-16.1v10.9h15.1v5.5h-15.1v12.6h16.1V260.3z"/>
	<path class="st0" d="M177.8,240.2c0,6.5-1.6,11.6-4.9,15.2c-3.3,3.6-7.9,5.4-13.8,5.4c-6,0-10.7-1.8-13.9-5.4
		c-3.2-3.6-4.9-8.7-4.9-15.3c0-6.6,1.6-11.7,4.9-15.2c3.3-3.5,7.9-5.3,13.9-5.3c5.9,0,10.5,1.8,13.8,5.4
		C176.2,228.6,177.8,233.7,177.8,240.2z M147.3,240.2c0,4.9,1,8.7,3,11.2c2,2.5,4.9,3.8,8.8,3.8c3.9,0,6.8-1.3,8.8-3.8
		c2-2.5,3-6.3,3-11.2c0-4.9-1-8.6-2.9-11.2c-2-2.5-4.9-3.8-8.8-3.8c-3.9,0-6.9,1.3-8.9,3.8C148.3,231.6,147.3,235.3,147.3,240.2z"/>
	<path class="st0" d="M213.8,234.9h-7.4v25.4h-6.5v-25.4h-5v-3l5-2v-2c0-3.6,0.8-6.2,2.5-7.9c1.7-1.7,4.2-2.6,7.7-2.6
		c2.3,0,4.5,0.4,6.7,1.1l-1.7,4.9c-1.6-0.5-3.1-0.8-4.5-0.8c-1.5,0-2.5,0.5-3.2,1.4c-0.7,0.9-1,2.3-1,4.1v2h7.4V234.9z"/>
	<path class="st0" d="M245.2,245.1c0,4.9-1.3,8.8-3.8,11.6c-2.5,2.8-6.1,4.2-10.6,4.2c-2.8,0-5.3-0.6-7.5-1.9
		c-2.2-1.3-3.8-3.1-5-5.5c-1.2-2.4-1.8-5.2-1.8-8.3c0-4.9,1.3-8.7,3.8-11.5c2.5-2.8,6.1-4.1,10.6-4.1c4.4,0,7.8,1.4,10.4,4.2
		C243.9,236.5,245.2,240.3,245.2,245.1z M223.2,245.1c0,7,2.6,10.5,7.7,10.5c5.1,0,7.7-3.5,7.7-10.5c0-6.9-2.6-10.4-7.7-10.4
		c-2.7,0-4.7,0.9-5.9,2.7C223.8,239.2,223.2,241.8,223.2,245.1z"/>
	<path class="st0" d="M267.3,229.5c1.3,0,2.4,0.1,3.2,0.3l-0.6,6c-0.9-0.2-1.9-0.3-2.8-0.3c-2.6,0-4.7,0.8-6.2,2.5
		c-1.6,1.7-2.4,3.9-2.4,6.5v15.8H252V230h5l0.8,5.3h0.3c1-1.8,2.3-3.2,3.9-4.3C263.7,230,265.5,229.5,267.3,229.5z"/>
	<g>
		<path class="st0" d="M336.5,227.8c-1,0-1.7,0.3-2.3,0.8c-0.5,0.5-0.8,1.1-0.8,1.9c0,0.6,0.2,1.4,0.5,2.3c0.3,0.7,0.4,1.5,0.3,2.2
			c-0.4,2.8-1.4,5.9-2.9,9.1c-0.8,1.7-2.1,4-4,6.9l-2.9,3.9l-0.4-4.2l-2.1-18.4c-0.1-0.6-0.2-1.1-0.3-1.6c-0.5-1.8-1.8-2.8-3.8-2.8
			c-0.7,0-1.4,0.1-2.1,0.4c-1.6,0.7-2.7,1.6-3.5,2.8l-0.1,0.2l-0.1,0.1l0,0.1l1.1,2.2l0.1,0.2l0.2-0.2l1.4-1.1
			c0.2-0.2,0.4-0.2,0.6-0.2c0.3,0,0.5,0.5,0.7,1.3l4.4,27.8l0,0.2l0.2,0l4.1-0.4l0.1,0l0.1-0.1l6.7-9c2.3-3.3,4.1-6.4,5.4-9.1
			c0.8-1.6,1.5-3.3,2-4.8c0.5-1.6,0.8-3.2,0.8-4.7c0-1.5-0.3-2.9-0.8-3.9C338.4,228.4,337.6,227.8,336.5,227.8z M334.2,232.6
			c-0.3-0.9-0.5-1.6-0.5-2.2l0,0C333.7,231,333.8,231.7,334.2,232.6c0.2,0.6,0.3,1.2,0.3,1.7C334.5,233.8,334.4,233.2,334.2,232.6z
			 M313.4,233.5l-1.1-2.2l0,0L313.4,233.5l1.4-1.1c0,0,0,0,0,0c0,0,0,0,0,0L313.4,233.5z M315.3,232.1c0,0-0.1,0-0.1,0
			C315.3,232.1,315.3,232.1,315.3,232.1z M316.5,233.6c-0.1-0.5-0.3-1.5-0.8-1.5h0l0,0C316.1,232.1,316.4,233,316.5,233.6l4.4,27.8
			L316.5,233.6z M338.9,238.1c-0.5,1.6-1.2,3.2-2,4.8c-1.3,2.7-3.2,5.8-5.4,9.1l-6.7,9l6.7-9c2.2-3.3,4.1-6.4,5.4-9.1
			C337.8,241.3,338.4,239.7,338.9,238.1c0.5-1.6,0.8-3.2,0.8-4.6l0,0C339.7,234.9,339.5,236.5,338.9,238.1z"/>
		<path class="st0" d="M361.3,228.3c-1-0.4-2.3-0.6-3.8-0.6c-1.5,0-2.9,0.3-4.4,0.8c-4.2,1.6-7.4,4.8-9.6,9.7
			c-1.5,3.3-2.3,6.8-2.3,10.5c0,5.6,2,9.5,6,11.6c1.5,0.8,3.4,1.2,5.6,1.2c2.3,0,4.8-0.8,7.5-2.5c1.4-0.9,2.6-2,3.6-3.4l0.2-0.3
			l0.1-0.1l-0.1-0.1l-1.5-2.7l-0.1-0.2l-0.2,0.2l-0.5,0.5c-2.8,2.8-5.8,4.2-8.8,4.2c-1.6,0-2.8-0.5-3.8-1.5c-0.5-0.5-0.8-1-1.1-1.6
			c-0.3-0.6-0.5-1.3-0.7-2c-0.2-0.7-0.3-1.3-0.3-1.8c0-0.5,0-1,0-1.3c0-0.2,0-0.3,0-0.5c2-0.1,4.3-0.6,6.9-1.3
			c1.4-0.4,2.8-1,4.2-1.7c1.4-0.7,2.7-1.5,3.8-2.4c1.2-0.9,2.1-2,2.8-3.3c0.7-1.3,1.1-2.8,1.1-4.7c0-1.9-0.7-3.6-2.1-4.9
			C363.3,229.2,362.4,228.7,361.3,228.3z M359.7,238.1c-0.8,1.5-2.1,2.8-4,3.8c-2.6,1.4-5.3,2.2-8.2,2.4c0.2-1.7,0.7-3.5,1.4-5.2
			c0.4-1,0.9-2,1.4-2.9c0.5-0.9,1.1-1.7,1.8-2.4c0.7-0.7,1.4-1.2,2.2-1.6c0.8-0.4,1.7-0.6,2.7-0.6c1,0,1.7,0.3,2.4,1
			c0.6,0.6,0.9,1.5,0.9,2.6C360.3,236.4,360.1,237.3,359.7,238.1z M360.5,235.2c0-1.1-0.3-2-1-2.7c-0.7-0.7-1.5-1-2.5-1
			c-1.1,0-2,0.2-2.8,0.6c-0.8,0.4-1.6,0.9-2.2,1.6c-0.7,0.7-1.3,1.5-1.8,2.4c-0.5,0.9-1,1.9-1.4,2.9c-0.7,1.8-1.2,3.7-1.4,5.5l0,0
			c0.2-1.8,0.7-3.7,1.4-5.5c0.4-1,0.9-2,1.4-2.9c0.5-0.9,1.1-1.7,1.8-2.4c0.7-0.7,1.4-1.2,2.2-1.6c0.8-0.4,1.7-0.6,2.8-0.6
			c1,0,1.8,0.3,2.5,1C360.1,233.2,360.5,234.1,360.5,235.2L360.5,235.2z M344.8,258.3c-0.7-0.7-1.4-1.6-1.9-2.5
			c-1-1.9-1.5-4.3-1.5-7v0c0,2.8,0.5,5.1,1.5,7C343.5,256.7,344.1,257.5,344.8,258.3c0.7,0.7,1.6,1.4,2.6,1.9
			C346.4,259.6,345.6,259,344.8,258.3z M364,255.5c-0.5,0.7-1,1.3-1.6,1.9s-1.2,1.1-1.9,1.5c0.7-0.4,1.3-0.9,1.9-1.5
			S363.5,256.1,364,255.5l0.2-0.3v0L364,255.5z M364.8,239.4c-0.7,1.2-1.6,2.3-2.8,3.2c-1.1,0.9-2.4,1.7-3.8,2.4
			c-1.4,0.7-2.8,1.2-4.2,1.6c-2.6,0.8-5,1.2-7,1.3c0,0.2,0,0.5,0,0.7v0c0-0.2,0-0.5,0-0.7c2-0.1,4.4-0.5,7-1.3
			c1.4-0.4,2.8-1,4.2-1.6c1.4-0.7,2.7-1.5,3.8-2.4C363.2,241.7,364.1,240.6,364.8,239.4c0.7-1.2,1.1-2.8,1.1-4.6v0
			C365.9,236.7,365.6,238.2,364.8,239.4z"/>
		<path class="st0" d="M389.2,234.3l0.2,0.1l0.1-0.3l1.1-5.5l0-0.1l-0.1-0.1l-0.2-0.2c-0.4-0.4-1.1-0.5-2.2-0.5
			c-2.4,0-4.7,0.9-7,2.8c-0.9,0.7-1.7,1.6-2.4,2.4l0.5-4.2l0-0.1l-0.1-0.1l-1.5-0.8l-0.1,0l-0.1,0l-6.3,1.2l-0.1,0l0,0.1l-0.5,2.7
			l0,0.2l0.1,0.1l2.5,1.2l-3.6,27.5l0,0.2h0.2h5.2h0.2l0-0.2l2.7-20.4c0.9-2.1,2.3-3.8,3.9-5c0.7-0.6,1.5-1,2.3-1.2
			c0.8-0.3,1.6-0.4,2.5-0.4c0.9,0,1.6,0.1,2,0.3L389.2,234.3z M378.5,233.7L378.5,233.7l0.6-5l0,0L378.5,233.7z M370.7,231.9
			L370.7,231.9l2.7,1.3v0L370.7,231.9z M384,233.9c-0.8,0.3-1.6,0.7-2.3,1.3c-1.7,1.3-3,3-4,5.2l-2.7,20.4l2.7-20.4
			c1-2.1,2.3-3.9,4-5.2C382.4,234.6,383.2,234.2,384,233.9c0.8-0.3,1.7-0.4,2.6-0.4c0.9,0,1.6,0.1,2.1,0.3l0.6,0.3l1.1-5.5l0,0
			l-1.1,5.5l-0.6-0.3c-0.4-0.2-1.1-0.3-2.1-0.3C385.7,233.5,384.8,233.6,384,233.9z"/>
		<path class="st0" d="M416.7,227.8c-0.8,0-1.4,0.3-2,0.7c-0.5,0.5-0.8,1.1-0.8,1.9c0,0.6,0.1,1.1,0.2,1.5l0.5,1.3
			c0.2,0.5,0.2,1,0.2,1.7c-0.4,3.5-1.7,7.7-3.9,12.4l-1.6,3.3c-0.4,0.8-0.7,1.4-0.9,1.8l-3.2,6.1l-0.5-5.3l-2.8-21
			c-0.3-1.5-0.6-2.5-1-3c-0.3-0.4-0.7-0.7-1.2-1c-0.5-0.2-1.1-0.3-1.8-0.3c-0.7,0-1.5,0.2-2.2,0.5c-1.8,0.8-3.1,1.9-3.8,3.2
			l-0.1,0.2l-0.1,0.1l0,0.1l1.1,2.2l0.1,0.2l0.2-0.2l0.5-0.5c1.4-1.3,1.8-1.3,1.8-1.3c0.1,0,0.3,0,0.3,0.1c0,0.1,0.2,0.3,0.5,1.2
			l5,29.3l0,0.2h0.2h0.7c-1.1,2.2-2.5,4-4,5.3c-0.8,0.6-1.5,1.1-2.2,1.3c-0.7,0.3-1.5,0.4-2.3,0.4c-0.8,0-1.7-0.1-2.5-0.4
			c-0.4-0.1-0.6-0.2-0.9-0.3c-0.3-0.1-0.5-0.2-0.6-0.3l-0.5-0.2l-0.2-0.1l-0.1,0.2l-1.3,4.4l-0.1,0.2l0.2,0.1l0.5,0.2
			c0.6,0.2,1.3,0.4,2.3,0.6c0.5,0.1,0.9,0.1,1.3,0.2c0.5,0,1.1,0.1,2,0.1c0.9,0,1.9-0.2,3-0.5c2.8-0.9,4.9-2.4,6.4-4.6
			c2.6-3.1,6-8.8,10.1-17l3.1-5.8c2.7-5.5,4.1-10,4.1-13.4C420.4,228.8,418.4,227.8,416.7,227.8z M414.3,231.8
			c-0.1-0.3-0.2-0.8-0.2-1.4l0,0C414.1,231,414.2,231.5,414.3,231.8l0.5,1.3c0.1,0.3,0.2,0.5,0.2,0.8c0-0.3-0.1-0.6-0.2-0.8
			L414.3,231.8z M396.5,233.6c-0.2-0.9-0.4-1.2-0.5-1.3c0,0-0.1-0.2-0.5-0.2c0,0-0.5,0-1.9,1.4l-0.5,0.5l-1.1-2.2l0,0l1.1,2.2
			l0.5-0.5c1.5-1.4,1.9-1.4,1.9-1.4c0.4,0,0.5,0.1,0.5,0.2C396.1,232.4,396.2,232.7,396.5,233.6l5,29.3L396.5,233.6z M392.8,270.3
			c0.3,0,0.6,0.1,0.8,0.1C393.3,270.4,393.1,270.3,392.8,270.3z M394.8,270.3c-0.1,0-0.3,0-0.4,0
			C394.6,270.3,394.7,270.3,394.8,270.3z M392.4,270.3c-0.4-0.1-0.9-0.2-1.3-0.3C391.5,270.1,391.9,270.2,392.4,270.3z M416.2,246.8
			l-3.1,5.8c-1.3,2.6-2.5,4.9-3.6,7c-0.5,0.8-0.9,1.6-1.3,2.4c0.4-0.8,0.9-1.5,1.3-2.4c1.1-2.1,2.4-4.4,3.6-7L416.2,246.8
			c2.7-5.5,4.1-10,4.1-13.3v0C420.2,236.8,418.9,241.3,416.2,246.8z"/>
		<path class="st0" d="M442.3,228.7c-1.4-0.6-3-0.9-4.7-0.9c-1.7,0-3.3,0.3-4.7,0.8c-2.8,1.1-5.2,3-7.1,5.6
			c-2.8,3.9-4.3,8.5-4.3,13.5c0,6.7,2.2,11,6.4,12.9l0,0h0c1.4,0.6,3,0.9,4.7,0.9c1.7,0,3.3-0.3,4.7-0.8c2.8-1.1,5.2-3,7.1-5.7
			c2.8-3.9,4.3-8.5,4.3-13.5c0-4.4-1-7.8-2.9-10.2C444.9,230.2,443.7,229.3,442.3,228.7z M440.5,252.1c-1.7,3.6-4,5.3-6.9,5.3
			c-4.1,0-6.1-3.1-6.1-9.6c0-1.1,0.1-2.2,0.2-3.4c0.5-4.4,1.8-7.8,3.9-10.1c1.5-1.7,3.2-2.5,5.1-2.5c4.1,0,6.1,3.2,6.1,9.6
			C442.8,245.4,442,248.9,440.5,252.1z M443,241.5c0-6.6-2.1-9.8-6.3-9.8c-2,0-3.7,0.8-5.3,2.6c-2.1,2.3-3.4,5.8-3.9,10.2
			c-0.1,1.2-0.2,2.3-0.2,3.4v0c0-1.1,0.1-2.2,0.2-3.4c0.5-4.4,1.9-7.8,3.9-10.2c1.5-1.7,3.3-2.6,5.3-2.6
			C440.9,231.6,443,234.9,443,241.5L443,241.5z M421.7,247.7L421.7,247.7c0,3.3,0.5,6,1.6,8.1C422.3,253.8,421.7,251,421.7,247.7z
			 M444.3,254.9c-0.2,0.3-0.5,0.6-0.7,1C443.9,255.6,444.1,255.3,444.3,254.9c2.8-3.9,4.2-8.4,4.2-13.4v0
			C448.6,246.5,447.1,251,444.3,254.9z"/>
		<path class="st0" d="M479.3,255.6l-0.1-0.2l-0.2,0.2l-0.5,0.4c-1.1,1-1.7,1.2-2,1.3c-0.1-0.2-0.2-0.7-0.1-1.8c0.1-1,0.5-4,1.4-8.9
			c0.1-0.7,0.4-2.2,0.8-4.2c0.4-2.2,0.6-4.1,0.6-5.7c0-3.1-0.6-5.3-1.9-6.7c-0.6-0.7-1.4-1.3-2.2-1.6c-0.8-0.3-1.8-0.5-2.8-0.5
			c-1.2,0-2.4,0.2-3.6,0.7c-2.8,1-5.4,2.8-7.8,5.4l0.5-5.1l0-0.1l-0.1-0.1l-1.6-0.8l-0.1,0l-0.1,0l-6.3,1.2l-0.1,0l0,0.1l-0.5,2.7
			l0,0.2l0.1,0.1l2.6,1.2l-3.6,27.5l0,0.2h0.2h5.2h0.2l0-0.2l2.7-20.6c1.4-2.1,3.1-3.8,5.1-5.3c0.9-0.7,1.9-1.3,2.8-1.7
			c0.9-0.4,1.8-0.6,2.8-0.6c0.9,0,1.5,0.2,1.9,0.7c0.2,0.3,0.4,0.7,0.5,1.2c0.1,0.6,0.2,1.6,0.2,2.9c0,1.4-0.3,3.9-1,7.6l-1.4,7.7
			c-0.1,0.9-0.3,1.8-0.4,2.6c-0.1,0.9-0.2,1.5-0.2,1.9c0,0.4,0,0.7,0,0.8c0,2.2,1.3,3.5,3.6,3.5c0.8,0,1.6-0.2,2.3-0.5
			c1.8-0.7,3.1-1.7,3.9-3l0.2-0.3l0.1-0.1l-0.1-0.1L479.3,255.6z M478.5,242.2c-0.4,2.1-0.7,3.5-0.8,4.3c-0.9,4.9-1.3,7.9-1.4,8.9
			c0,0.2,0,0.4,0,0.6c0-0.2,0-0.4,0-0.6c0.1-1,0.5-4,1.4-8.9C477.8,245.8,478,244.3,478.5,242.2c0.4-2.1,0.6-4.1,0.6-5.7v0
			C479.1,238.2,478.9,240.1,478.5,242.2z M472.8,228c-0.1,0-0.3,0-0.4,0c0,0,0.1,0,0.1,0C472.6,228,472.7,228,472.8,228z
			 M475.1,228.4c-0.2-0.1-0.4-0.1-0.6-0.2C474.7,228.3,474.9,228.3,475.1,228.4z M474.3,228.2c-0.1,0-0.3-0.1-0.4-0.1
			C474,228.1,474.1,228.1,474.3,228.2z M473.5,228c-0.1,0-0.3,0-0.4,0C473.3,228,473.4,228,473.5,228z M471.9,228
			c-0.1,0-0.2,0-0.4,0C471.6,228,471.8,228,471.9,228z M471,228.1c-0.1,0-0.2,0-0.3,0.1C470.8,228.1,470.9,228.1,471,228.1z
			 M470.1,228.3c-0.1,0-0.2,0-0.3,0.1C469.9,228.3,470,228.3,470.1,228.3z M460.7,234.4L460.7,234.4l0.6-5.7l0,0L460.7,234.4z
			 M453,231.9L453,231.9l2.7,1.3v0L453,231.9z M473,233.2c-0.4-0.5-1.1-0.8-2.1-0.8c-1,0-2,0.2-2.9,0.6c-0.9,0.4-1.9,1-2.8,1.7
			c-2,1.5-3.8,3.3-5.2,5.4l-2.8,20.7l2.8-20.7c1.4-2.1,3.2-3.9,5.2-5.4c1-0.7,1.9-1.3,2.8-1.7c0.9-0.4,1.9-0.6,2.9-0.6
			C471.9,232.4,472.6,232.7,473,233.2c0.2,0.3,0.4,0.8,0.6,1.3c0.1,0.6,0.2,1.6,0.2,2.9l0,0c0-1.4-0.1-2.4-0.2-2.9
			C473.4,234,473.2,233.5,473,233.2z"/>
		<path class="st0" d="M497,246.9c1.4-0.4,2.8-1,4.2-1.7c1.4-0.7,2.7-1.5,3.8-2.4c1.2-0.9,2.1-2,2.8-3.3c0.7-1.3,1.1-2.8,1.1-4.7
			c0-1.9-0.7-3.6-2.1-4.9c-0.7-0.7-1.6-1.2-2.7-1.6c-1-0.4-2.3-0.6-3.8-0.6c-1.5,0-2.9,0.3-4.4,0.8c-4.2,1.6-7.4,4.8-9.6,9.7
			c-1.5,3.3-2.3,6.8-2.3,10.5c0,5.6,2,9.5,6,11.6c1.5,0.8,3.4,1.2,5.6,1.2c2.3,0,4.8-0.8,7.5-2.5c1.4-0.9,2.6-2,3.6-3.4l0.2-0.3
			l0.1-0.1l-0.1-0.1l-1.5-2.7l-0.1-0.2l-0.2,0.2l-0.5,0.5c-2.8,2.8-5.8,4.2-8.8,4.2c-1.6,0-2.8-0.5-3.8-1.5c-0.5-0.5-0.8-1-1.1-1.6
			c-0.3-0.6-0.5-1.3-0.7-2c-0.2-0.7-0.3-1.3-0.3-1.8c0-0.5,0-1,0-1.3c0-0.2,0-0.3,0-0.5C492.1,248.1,494.4,247.6,497,246.9z
			 M502.5,238.1c-0.8,1.5-2.1,2.8-4,3.8c-2.6,1.4-5.3,2.2-8.2,2.4c0.2-1.7,0.7-3.5,1.4-5.2c0.4-1,0.9-2,1.4-2.9
			c0.5-0.9,1.1-1.7,1.8-2.4c0.7-0.7,1.4-1.2,2.2-1.6c0.8-0.4,1.7-0.6,2.7-0.6c1,0,1.7,0.3,2.4,1c0.6,0.6,0.9,1.5,0.9,2.6
			C503.1,236.4,502.9,237.3,502.5,238.1z M503.3,235.2c0-1.1-0.3-2-1-2.7c-0.7-0.7-1.5-1-2.5-1c-1.1,0-2,0.2-2.8,0.6
			c-0.8,0.4-1.6,0.9-2.2,1.6c-0.7,0.7-1.3,1.5-1.8,2.4c-0.5,0.9-1,1.9-1.4,2.9c-0.7,1.8-1.2,3.7-1.4,5.5l0,0
			c0.2-1.8,0.7-3.7,1.4-5.5c0.4-1,0.9-2,1.4-2.9c0.5-0.9,1.1-1.7,1.8-2.4c0.7-0.7,1.4-1.2,2.2-1.6c0.8-0.4,1.7-0.6,2.8-0.6
			c1,0,1.8,0.3,2.5,1C503,233.2,503.3,234.1,503.3,235.2L503.3,235.2z M487.7,258.3c-0.7-0.7-1.4-1.6-1.9-2.5c-1-1.9-1.5-4.3-1.5-7
			v0c0,2.8,0.5,5.1,1.5,7C486.4,256.7,487,257.5,487.7,258.3c0.7,0.7,1.6,1.4,2.6,1.9C489.3,259.6,488.4,259,487.7,258.3z
			 M506.8,255.5c-0.5,0.7-1,1.3-1.6,1.9s-1.2,1.1-1.9,1.5c0.7-0.4,1.3-0.9,1.9-1.5S506.3,256.1,506.8,255.5l0.2-0.3v0L506.8,255.5z
			 M489.9,248c0,0.2,0,0.5,0,0.7v0C489.9,248.5,489.9,248.2,489.9,248c2-0.1,4.4-0.5,7-1.3c1.4-0.4,2.8-1,4.2-1.6
			c1.4-0.7,2.7-1.5,3.8-2.4c1.1-0.9,2.1-2,2.8-3.2c0.7-1.2,1.1-2.8,1.1-4.6v0c0,1.8-0.4,3.3-1.1,4.6c-0.7,1.2-1.6,2.3-2.8,3.2
			c-1.1,0.9-2.4,1.7-3.8,2.4c-1.4,0.7-2.8,1.2-4.2,1.6C494.3,247.4,491.9,247.9,489.9,248z"/>
		<path class="st0" d="M305.3,228.3c-1-0.4-2.3-0.6-3.8-0.6c-1.5,0-2.9,0.3-4.4,0.8c-4.2,1.6-7.4,4.8-9.6,9.7
			c-1.5,3.3-2.3,6.8-2.3,10.5c0,5.6,2,9.5,6,11.6c1.5,0.8,3.4,1.2,5.6,1.2c2.3,0,4.8-0.8,7.5-2.5c1.4-0.9,2.6-2,3.6-3.4l0.2-0.3
			l0.1-0.1l-0.1-0.1l-1.5-2.7l-0.1-0.2l-0.2,0.2l-0.5,0.5c-2.8,2.8-5.8,4.2-8.8,4.2c-1.6,0-2.8-0.5-3.8-1.5c-0.5-0.5-0.8-1-1.1-1.6
			c-0.3-0.6-0.5-1.3-0.7-2c-0.2-0.7-0.3-1.3-0.3-1.8c0-0.5,0-1,0-1.3c0-0.2,0-0.3,0-0.5c2-0.1,4.3-0.6,6.9-1.3
			c1.4-0.4,2.8-1,4.2-1.7c1.4-0.7,2.7-1.5,3.8-2.4c1.2-0.9,2.1-2,2.8-3.3c0.7-1.3,1.1-2.8,1.1-4.7c0-1.9-0.7-3.6-2.1-4.9
			C307.2,229.2,306.3,228.7,305.3,228.3z M303.6,238.1c-0.8,1.5-2.1,2.8-4,3.8c-2.6,1.4-5.3,2.2-8.2,2.4c0.2-1.7,0.7-3.5,1.4-5.2
			c0.4-1,0.9-2,1.4-2.9c0.5-0.9,1.1-1.7,1.8-2.4c0.7-0.7,1.4-1.2,2.2-1.6c0.8-0.4,1.7-0.6,2.7-0.6c1,0,1.7,0.3,2.4,1
			c0.6,0.6,0.9,1.5,0.9,2.6C304.2,236.4,304,237.3,303.6,238.1z M304.4,235.2c0-1.1-0.3-2-1-2.7c-0.7-0.7-1.5-1-2.5-1
			c-1.1,0-2,0.2-2.8,0.6c-0.8,0.4-1.6,0.9-2.2,1.6c-0.7,0.7-1.3,1.5-1.8,2.4c-0.5,0.9-1,1.9-1.4,2.9c-0.7,1.8-1.2,3.7-1.4,5.5l0,0
			c0.2-1.8,0.7-3.7,1.4-5.5c0.4-1,0.9-2,1.4-2.9c0.5-0.9,1.1-1.7,1.8-2.4c0.7-0.7,1.4-1.2,2.2-1.6c0.8-0.4,1.7-0.6,2.8-0.6
			c1,0,1.8,0.3,2.5,1C304.1,233.2,304.4,234.1,304.4,235.2L304.4,235.2z M288.8,258.3c-0.7-0.7-1.4-1.6-1.9-2.5
			c-1-1.9-1.5-4.3-1.5-7v0c0,2.8,0.5,5.1,1.5,7C287.4,256.7,288,257.5,288.8,258.3c0.7,0.7,1.6,1.4,2.6,1.9
			C290.4,259.6,289.5,259,288.8,258.3z M307.9,255.5c-0.5,0.7-1,1.3-1.6,1.9s-1.2,1.1-1.9,1.5c0.7-0.4,1.3-0.9,1.9-1.5
			S307.4,256.1,307.9,255.5l0.2-0.3v0L307.9,255.5z M308.8,239.4c-0.7,1.2-1.6,2.3-2.8,3.2c-1.1,0.9-2.4,1.7-3.8,2.4
			c-1.4,0.7-2.8,1.2-4.2,1.6c-2.6,0.8-5,1.2-7,1.3c0,0.2,0,0.5,0,0.7v0c0-0.2,0-0.5,0-0.7c2-0.1,4.4-0.5,7-1.3
			c1.4-0.4,2.8-1,4.2-1.6c1.4-0.7,2.7-1.5,3.8-2.4C307.1,241.7,308.1,240.6,308.8,239.4c0.7-1.2,1.1-2.8,1.1-4.6v0
			C309.9,236.7,309.5,238.2,308.8,239.4z"/>
	</g>
</g>
</svg>
