<?xml version="1.0" encoding="UTF-8" standalone="no"?>
<svg
   xmlns:dc="http://purl.org/dc/elements/1.1/"
   xmlns:cc="http://creativecommons.org/ns#"
   xmlns:rdf="http://www.w3.org/1999/02/22-rdf-syntax-ns#"
   xmlns:svg="http://www.w3.org/2000/svg"
   xmlns="http://www.w3.org/2000/svg"
   style="fill:none"
   height="14"
   width="15"
   id="svg6"
   version="1.1"
   viewBox="0 0 15 14">
  <metadata
     id="metadata10">
    <rdf:RDF>
      <cc:Work
         rdf:about="">
        <dc:format>image/svg+xml</dc:format>
        <dc:type
           rdf:resource="http://purl.org/dc/dcmitype/StillImage" />
        <dc:title></dc:title>
      </cc:Work>
    </rdf:RDF>
  </metadata>
  <defs
     id="defs2" />
  <path
     style="clip-rule:evenodd;fill:#833585;fill-rule:evenodd"
     id="path4"
     d="M 1.62516,6.57062 5.29607,11.8289 13.1527,0.574898 c 0.2371,-0.340058 0.7049,-0.423566 1.045,-0.186521 0.0352,0.024559 0.0683,0.052096 0.0988,0.082308 0.2609,0.274464 0.2879,0.696295 0.0643,1.001845 L 6.05904,13.364 C 5.76459,13.7854 5.18428,13.8884 4.76288,13.5939 4.67337,13.5314 4.59556,13.4536 4.53302,13.364 L 0.417131,7.46833 C 0.193396,7.16275 0.220444,6.74085 0.481368,6.46633 0.776006,6.17473 1.25125,6.17718 1.54286,6.47182 1.57307,6.50234 1.6006,6.53539 1.62515,6.57062 Z" />
</svg>
